# xmcd
#
# Track frame offsets: 
#        150
#        29349
#        56621
#        86483
#        111777
#        135860
#        175011
#        210919
#        268646
#
# Disc length: 4513 seconds
#
# Revision: 0
# Processed by: cddbd v1.5.2PL0 Copyright (c) Steve Scherf et al.
# Submitted via: ExactAudioCopy v0.95b4
#
DISCID=6b119f09
DTITLE=Allman Brothers Band - One Way Out CD2
DYEAR=2003
DGENRE=Blues Rock
TTITLE0=Ain't Wastin' Time No More
TTITLE1=Come and Go Blues
TTITLE2=Woman Across the River
TTITLE3=Old Before My Time
TTITLE4=Every Hungry Woman
TTITLE5=High Cost of Low Living
TTITLE6=Worried Down With the Blues
TTITLE7=Dreams
TTITLE8=Whippin' Post
EXTD=
EXTT0=
EXTT1=
EXTT2=
EXTT3=
EXTT4=
EXTT5=
EXTT6=
EXTT7=
EXTT8=
PLAYORDER=
